<mxfile host="app.diagrams.net" agent="Mozilla/5.0 (Windows NT 10.0; Win64; x64) AppleWebKit/537.36 (KHTML, like Gecko) Chrome/140.0.0.0 Safari/537.36" version="28.2.0">
  <diagram name="Page-1" id="OTZF2SW87jd2BYN3wRyS">
    <mxGraphModel dx="1158" dy="640" grid="1" gridSize="10" guides="1" tooltips="1" connect="1" arrows="1" fold="1" page="1" pageScale="1" pageWidth="827" pageHeight="1169" math="0" shadow="0">
      <root>
        <mxCell id="0" />
        <mxCell id="1" parent="0" />
        <mxCell id="JsTClda8z1s7_HaM9YSm-8" style="edgeStyle=orthogonalEdgeStyle;rounded=0;orthogonalLoop=1;jettySize=auto;html=1;entryX=0.5;entryY=0;entryDx=0;entryDy=0;" parent="1" source="JxnngDnGUZKltAQL_AIo-1" target="JsTClda8z1s7_HaM9YSm-6" edge="1">
          <mxGeometry relative="1" as="geometry" />
        </mxCell>
        <mxCell id="JxnngDnGUZKltAQL_AIo-1" value="" style="ellipse;whiteSpace=wrap;html=1;aspect=fixed;fillColor=#000000;" parent="1" vertex="1">
          <mxGeometry x="399" y="20" width="30" height="30" as="geometry" />
        </mxCell>
        <mxCell id="JxnngDnGUZKltAQL_AIo-6" style="edgeStyle=orthogonalEdgeStyle;rounded=0;orthogonalLoop=1;jettySize=auto;html=1;exitX=0.5;exitY=1;exitDx=0;exitDy=0;entryX=0.5;entryY=0;entryDx=0;entryDy=0;" parent="1" source="JxnngDnGUZKltAQL_AIo-2" target="JxnngDnGUZKltAQL_AIo-5" edge="1">
          <mxGeometry relative="1" as="geometry" />
        </mxCell>
        <mxCell id="JxnngDnGUZKltAQL_AIo-2" value="" style="rounded=1;whiteSpace=wrap;html=1;" parent="1" vertex="1">
          <mxGeometry x="525" y="110" width="120" height="60" as="geometry" />
        </mxCell>
        <mxCell id="JxnngDnGUZKltAQL_AIo-4" value="User enters login info" style="text;html=1;align=center;verticalAlign=middle;whiteSpace=wrap;rounded=0;" parent="1" vertex="1">
          <mxGeometry x="555" y="125" width="60" height="30" as="geometry" />
        </mxCell>
        <mxCell id="JsTClda8z1s7_HaM9YSm-28" style="edgeStyle=orthogonalEdgeStyle;rounded=0;orthogonalLoop=1;jettySize=auto;html=1;exitX=0.5;exitY=1;exitDx=0;exitDy=0;entryX=0.5;entryY=0;entryDx=0;entryDy=0;" parent="1" source="JxnngDnGUZKltAQL_AIo-5" target="JsTClda8z1s7_HaM9YSm-27" edge="1">
          <mxGeometry relative="1" as="geometry" />
        </mxCell>
        <mxCell id="JxnngDnGUZKltAQL_AIo-5" value="" style="rhombus;whiteSpace=wrap;html=1;" parent="1" vertex="1">
          <mxGeometry x="520" y="200" width="130" height="80" as="geometry" />
        </mxCell>
        <mxCell id="JxnngDnGUZKltAQL_AIo-7" value="If valid info" style="text;html=1;align=center;verticalAlign=middle;whiteSpace=wrap;rounded=0;" parent="1" vertex="1">
          <mxGeometry x="555" y="225" width="60" height="30" as="geometry" />
        </mxCell>
        <mxCell id="JsTClda8z1s7_HaM9YSm-1" value="" style="endArrow=none;html=1;rounded=0;" parent="1" edge="1">
          <mxGeometry width="50" height="50" relative="1" as="geometry">
            <mxPoint x="651" y="240" as="sourcePoint" />
            <mxPoint x="701" y="240" as="targetPoint" />
          </mxGeometry>
        </mxCell>
        <mxCell id="JsTClda8z1s7_HaM9YSm-2" value="" style="endArrow=none;html=1;rounded=0;exitX=1;exitY=1;exitDx=0;exitDy=0;" parent="1" source="JsTClda8z1s7_HaM9YSm-4" edge="1">
          <mxGeometry width="50" height="50" relative="1" as="geometry">
            <mxPoint x="701" y="250" as="sourcePoint" />
            <mxPoint x="701" y="140" as="targetPoint" />
          </mxGeometry>
        </mxCell>
        <mxCell id="JsTClda8z1s7_HaM9YSm-3" value="" style="endArrow=classic;html=1;rounded=0;entryX=1;entryY=0.5;entryDx=0;entryDy=0;" parent="1" target="JxnngDnGUZKltAQL_AIo-2" edge="1">
          <mxGeometry width="50" height="50" relative="1" as="geometry">
            <mxPoint x="701" y="140" as="sourcePoint" />
            <mxPoint x="751" y="120" as="targetPoint" />
          </mxGeometry>
        </mxCell>
        <mxCell id="JsTClda8z1s7_HaM9YSm-4" value="False" style="text;html=1;align=center;verticalAlign=middle;whiteSpace=wrap;rounded=0;" parent="1" vertex="1">
          <mxGeometry x="641" y="210" width="60" height="30" as="geometry" />
        </mxCell>
        <mxCell id="JsTClda8z1s7_HaM9YSm-5" value="True" style="text;html=1;align=center;verticalAlign=middle;whiteSpace=wrap;rounded=0;" parent="1" vertex="1">
          <mxGeometry x="580" y="280" width="60" height="30" as="geometry" />
        </mxCell>
        <mxCell id="JsTClda8z1s7_HaM9YSm-10" style="edgeStyle=orthogonalEdgeStyle;rounded=0;orthogonalLoop=1;jettySize=auto;html=1;exitX=1;exitY=0.5;exitDx=0;exitDy=0;entryX=0;entryY=0.5;entryDx=0;entryDy=0;" parent="1" source="JsTClda8z1s7_HaM9YSm-6" target="JxnngDnGUZKltAQL_AIo-2" edge="1">
          <mxGeometry relative="1" as="geometry" />
        </mxCell>
        <mxCell id="JsTClda8z1s7_HaM9YSm-24" style="edgeStyle=orthogonalEdgeStyle;rounded=0;orthogonalLoop=1;jettySize=auto;html=1;exitX=0;exitY=0.5;exitDx=0;exitDy=0;entryX=1;entryY=0.5;entryDx=0;entryDy=0;" parent="1" source="JsTClda8z1s7_HaM9YSm-6" target="JsTClda8z1s7_HaM9YSm-12" edge="1">
          <mxGeometry relative="1" as="geometry" />
        </mxCell>
        <mxCell id="JsTClda8z1s7_HaM9YSm-6" value="" style="rhombus;whiteSpace=wrap;html=1;" parent="1" vertex="1">
          <mxGeometry x="349" y="100" width="130" height="80" as="geometry" />
        </mxCell>
        <mxCell id="JsTClda8z1s7_HaM9YSm-9" value="Register or Login" style="text;html=1;align=center;verticalAlign=middle;whiteSpace=wrap;rounded=0;" parent="1" vertex="1">
          <mxGeometry x="384" y="125" width="60" height="30" as="geometry" />
        </mxCell>
        <mxCell id="JsTClda8z1s7_HaM9YSm-20" style="edgeStyle=orthogonalEdgeStyle;rounded=0;orthogonalLoop=1;jettySize=auto;html=1;exitX=0.5;exitY=1;exitDx=0;exitDy=0;entryX=0.5;entryY=0;entryDx=0;entryDy=0;" parent="1" source="JsTClda8z1s7_HaM9YSm-12" target="JsTClda8z1s7_HaM9YSm-15" edge="1">
          <mxGeometry relative="1" as="geometry" />
        </mxCell>
        <mxCell id="JsTClda8z1s7_HaM9YSm-12" value="" style="rounded=1;whiteSpace=wrap;html=1;" parent="1" vertex="1">
          <mxGeometry x="180" y="110" width="120" height="60" as="geometry" />
        </mxCell>
        <mxCell id="JsTClda8z1s7_HaM9YSm-14" value="User enters new information" style="text;html=1;align=center;verticalAlign=middle;whiteSpace=wrap;rounded=0;" parent="1" vertex="1">
          <mxGeometry x="210" y="125" width="60" height="30" as="geometry" />
        </mxCell>
        <mxCell id="JsTClda8z1s7_HaM9YSm-26" style="edgeStyle=orthogonalEdgeStyle;rounded=0;orthogonalLoop=1;jettySize=auto;html=1;exitX=0.5;exitY=1;exitDx=0;exitDy=0;entryX=0.5;entryY=0;entryDx=0;entryDy=0;" parent="1" source="JsTClda8z1s7_HaM9YSm-15" target="JsTClda8z1s7_HaM9YSm-25" edge="1">
          <mxGeometry relative="1" as="geometry" />
        </mxCell>
        <mxCell id="JsTClda8z1s7_HaM9YSm-15" value="" style="rhombus;whiteSpace=wrap;html=1;" parent="1" vertex="1">
          <mxGeometry x="170" y="200" width="130" height="80" as="geometry" />
        </mxCell>
        <mxCell id="JsTClda8z1s7_HaM9YSm-16" value="Check info is unique" style="text;html=1;align=center;verticalAlign=middle;whiteSpace=wrap;rounded=0;" parent="1" vertex="1">
          <mxGeometry x="205" y="225" width="60" height="30" as="geometry" />
        </mxCell>
        <mxCell id="JsTClda8z1s7_HaM9YSm-17" value="" style="endArrow=none;html=1;rounded=0;" parent="1" edge="1">
          <mxGeometry width="50" height="50" relative="1" as="geometry">
            <mxPoint x="120" y="239" as="sourcePoint" />
            <mxPoint x="170" y="239" as="targetPoint" />
          </mxGeometry>
        </mxCell>
        <mxCell id="JsTClda8z1s7_HaM9YSm-18" value="False" style="text;html=1;align=center;verticalAlign=middle;whiteSpace=wrap;rounded=0;" parent="1" vertex="1">
          <mxGeometry x="110" y="210" width="60" height="30" as="geometry" />
        </mxCell>
        <mxCell id="JsTClda8z1s7_HaM9YSm-19" value="True" style="text;html=1;align=center;verticalAlign=middle;whiteSpace=wrap;rounded=0;" parent="1" vertex="1">
          <mxGeometry x="180" y="280" width="60" height="30" as="geometry" />
        </mxCell>
        <mxCell id="JsTClda8z1s7_HaM9YSm-21" value="" style="endArrow=none;html=1;rounded=0;" parent="1" edge="1">
          <mxGeometry width="50" height="50" relative="1" as="geometry">
            <mxPoint x="120" y="240" as="sourcePoint" />
            <mxPoint x="120" y="140" as="targetPoint" />
          </mxGeometry>
        </mxCell>
        <mxCell id="JsTClda8z1s7_HaM9YSm-22" value="" style="endArrow=classic;html=1;rounded=0;entryX=0;entryY=0.5;entryDx=0;entryDy=0;" parent="1" target="JsTClda8z1s7_HaM9YSm-12" edge="1">
          <mxGeometry width="50" height="50" relative="1" as="geometry">
            <mxPoint x="120" y="140" as="sourcePoint" />
            <mxPoint x="180" y="120" as="targetPoint" />
          </mxGeometry>
        </mxCell>
        <mxCell id="JsTClda8z1s7_HaM9YSm-25" value="Create User in database and Introduce User" style="rounded=1;whiteSpace=wrap;html=1;" parent="1" vertex="1">
          <mxGeometry x="175" y="310" width="120" height="60" as="geometry" />
        </mxCell>
        <mxCell id="JsTClda8z1s7_HaM9YSm-27" value="Login User and send to home screen" style="rounded=1;whiteSpace=wrap;html=1;" parent="1" vertex="1">
          <mxGeometry x="525" y="310" width="120" height="60" as="geometry" />
        </mxCell>
        <mxCell id="ISL3LFxXbaxIs8x1Z1HF-2" value="While user logged in" style="rhombus;whiteSpace=wrap;html=1;" vertex="1" parent="1">
          <mxGeometry x="349" y="380" width="130" height="80" as="geometry" />
        </mxCell>
        <mxCell id="ISL3LFxXbaxIs8x1Z1HF-4" value="" style="endArrow=classic;html=1;rounded=0;entryX=1;entryY=0.5;entryDx=0;entryDy=0;" edge="1" parent="1" target="ISL3LFxXbaxIs8x1Z1HF-2">
          <mxGeometry width="50" height="50" relative="1" as="geometry">
            <mxPoint x="590" y="420" as="sourcePoint" />
            <mxPoint x="570" y="395" as="targetPoint" />
          </mxGeometry>
        </mxCell>
        <mxCell id="ISL3LFxXbaxIs8x1Z1HF-14" value="" style="endArrow=none;html=1;rounded=0;entryX=0.5;entryY=1;entryDx=0;entryDy=0;" edge="1" parent="1" target="JsTClda8z1s7_HaM9YSm-27">
          <mxGeometry width="50" height="50" relative="1" as="geometry">
            <mxPoint x="585" y="420" as="sourcePoint" />
            <mxPoint x="594.96" y="380" as="targetPoint" />
          </mxGeometry>
        </mxCell>
        <mxCell id="ISL3LFxXbaxIs8x1Z1HF-15" value="" style="endArrow=none;html=1;rounded=0;entryX=0.5;entryY=1;entryDx=0;entryDy=0;" edge="1" parent="1" target="JsTClda8z1s7_HaM9YSm-25">
          <mxGeometry width="50" height="50" relative="1" as="geometry">
            <mxPoint x="235" y="420" as="sourcePoint" />
            <mxPoint x="265" y="380" as="targetPoint" />
          </mxGeometry>
        </mxCell>
        <mxCell id="ISL3LFxXbaxIs8x1Z1HF-16" value="" style="endArrow=classic;html=1;rounded=0;entryX=0;entryY=0.5;entryDx=0;entryDy=0;" edge="1" parent="1">
          <mxGeometry width="50" height="50" relative="1" as="geometry">
            <mxPoint x="230" y="420" as="sourcePoint" />
            <mxPoint x="349" y="420" as="targetPoint" />
          </mxGeometry>
        </mxCell>
        <mxCell id="ISL3LFxXbaxIs8x1Z1HF-30" value="" style="edgeStyle=orthogonalEdgeStyle;rounded=0;orthogonalLoop=1;jettySize=auto;html=1;" edge="1" parent="1" source="ISL3LFxXbaxIs8x1Z1HF-18" target="ISL3LFxXbaxIs8x1Z1HF-23">
          <mxGeometry relative="1" as="geometry" />
        </mxCell>
        <mxCell id="ISL3LFxXbaxIs8x1Z1HF-42" value="" style="edgeStyle=orthogonalEdgeStyle;rounded=0;orthogonalLoop=1;jettySize=auto;html=1;" edge="1" parent="1" source="ISL3LFxXbaxIs8x1Z1HF-18" target="ISL3LFxXbaxIs8x1Z1HF-41">
          <mxGeometry relative="1" as="geometry" />
        </mxCell>
        <mxCell id="ISL3LFxXbaxIs8x1Z1HF-18" value="If clicks library Tab" style="rhombus;whiteSpace=wrap;html=1;" vertex="1" parent="1">
          <mxGeometry x="65" y="531" width="130" height="80" as="geometry" />
        </mxCell>
        <mxCell id="ISL3LFxXbaxIs8x1Z1HF-19" value="" style="endArrow=none;html=1;rounded=0;entryX=0.5;entryY=1;entryDx=0;entryDy=0;" edge="1" parent="1" target="ISL3LFxXbaxIs8x1Z1HF-2">
          <mxGeometry width="50" height="50" relative="1" as="geometry">
            <mxPoint x="414" y="500" as="sourcePoint" />
            <mxPoint x="540" y="500" as="targetPoint" />
          </mxGeometry>
        </mxCell>
        <mxCell id="ISL3LFxXbaxIs8x1Z1HF-20" value="" style="endArrow=none;html=1;rounded=0;" edge="1" parent="1">
          <mxGeometry width="50" height="50" relative="1" as="geometry">
            <mxPoint x="130" y="500" as="sourcePoint" />
            <mxPoint x="414" y="500" as="targetPoint" />
          </mxGeometry>
        </mxCell>
        <mxCell id="ISL3LFxXbaxIs8x1Z1HF-22" value="" style="edgeStyle=none;orthogonalLoop=1;jettySize=auto;html=1;rounded=0;entryX=0.5;entryY=0;entryDx=0;entryDy=0;" edge="1" parent="1" target="ISL3LFxXbaxIs8x1Z1HF-18">
          <mxGeometry width="80" relative="1" as="geometry">
            <mxPoint x="130" y="500" as="sourcePoint" />
            <mxPoint x="380" y="540" as="targetPoint" />
            <Array as="points" />
          </mxGeometry>
        </mxCell>
        <mxCell id="ISL3LFxXbaxIs8x1Z1HF-29" value="" style="edgeStyle=orthogonalEdgeStyle;rounded=0;orthogonalLoop=1;jettySize=auto;html=1;" edge="1" parent="1" source="ISL3LFxXbaxIs8x1Z1HF-23" target="ISL3LFxXbaxIs8x1Z1HF-28">
          <mxGeometry relative="1" as="geometry" />
        </mxCell>
        <mxCell id="ISL3LFxXbaxIs8x1Z1HF-44" style="edgeStyle=orthogonalEdgeStyle;rounded=0;orthogonalLoop=1;jettySize=auto;html=1;exitX=0.5;exitY=1;exitDx=0;exitDy=0;entryX=0.5;entryY=0;entryDx=0;entryDy=0;" edge="1" parent="1" source="ISL3LFxXbaxIs8x1Z1HF-23" target="ISL3LFxXbaxIs8x1Z1HF-43">
          <mxGeometry relative="1" as="geometry" />
        </mxCell>
        <mxCell id="ISL3LFxXbaxIs8x1Z1HF-23" value="If clicks Playlists Tab" style="rhombus;whiteSpace=wrap;html=1;" vertex="1" parent="1">
          <mxGeometry x="254" y="531" width="130" height="80" as="geometry" />
        </mxCell>
        <mxCell id="ISL3LFxXbaxIs8x1Z1HF-32" value="" style="edgeStyle=orthogonalEdgeStyle;rounded=0;orthogonalLoop=1;jettySize=auto;html=1;" edge="1" parent="1" source="ISL3LFxXbaxIs8x1Z1HF-28" target="ISL3LFxXbaxIs8x1Z1HF-31">
          <mxGeometry relative="1" as="geometry" />
        </mxCell>
        <mxCell id="ISL3LFxXbaxIs8x1Z1HF-46" value="" style="edgeStyle=orthogonalEdgeStyle;rounded=0;orthogonalLoop=1;jettySize=auto;html=1;" edge="1" parent="1" source="ISL3LFxXbaxIs8x1Z1HF-28" target="ISL3LFxXbaxIs8x1Z1HF-45">
          <mxGeometry relative="1" as="geometry" />
        </mxCell>
        <mxCell id="ISL3LFxXbaxIs8x1Z1HF-28" value="If clicks Search Tab" style="rhombus;whiteSpace=wrap;html=1;" vertex="1" parent="1">
          <mxGeometry x="463" y="531" width="130" height="80" as="geometry" />
        </mxCell>
        <mxCell id="ISL3LFxXbaxIs8x1Z1HF-48" value="" style="edgeStyle=orthogonalEdgeStyle;rounded=0;orthogonalLoop=1;jettySize=auto;html=1;" edge="1" parent="1" source="ISL3LFxXbaxIs8x1Z1HF-31" target="ISL3LFxXbaxIs8x1Z1HF-47">
          <mxGeometry relative="1" as="geometry" />
        </mxCell>
        <mxCell id="ISL3LFxXbaxIs8x1Z1HF-31" value="If clicks Friends Tab" style="rhombus;whiteSpace=wrap;html=1;" vertex="1" parent="1">
          <mxGeometry x="674" y="531" width="130" height="80" as="geometry" />
        </mxCell>
        <mxCell id="ISL3LFxXbaxIs8x1Z1HF-33" value="" style="endArrow=none;html=1;rounded=0;entryX=0.5;entryY=0;entryDx=0;entryDy=0;" edge="1" parent="1" target="ISL3LFxXbaxIs8x1Z1HF-31">
          <mxGeometry width="50" height="50" relative="1" as="geometry">
            <mxPoint x="739" y="440" as="sourcePoint" />
            <mxPoint x="724" y="481" as="targetPoint" />
          </mxGeometry>
        </mxCell>
        <mxCell id="ISL3LFxXbaxIs8x1Z1HF-34" value="" style="endArrow=classic;html=1;rounded=0;entryX=1;entryY=1;entryDx=0;entryDy=0;" edge="1" parent="1" target="ISL3LFxXbaxIs8x1Z1HF-2">
          <mxGeometry width="50" height="50" relative="1" as="geometry">
            <mxPoint x="740" y="440" as="sourcePoint" />
            <mxPoint x="674" y="460" as="targetPoint" />
          </mxGeometry>
        </mxCell>
        <mxCell id="ISL3LFxXbaxIs8x1Z1HF-41" value="To Library" style="shape=offPageConnector;whiteSpace=wrap;html=1;direction=east;fillColor=#dae8fc;strokeColor=#6c8ebf;" vertex="1" parent="1">
          <mxGeometry x="90" y="630" width="80" height="80" as="geometry" />
        </mxCell>
        <mxCell id="ISL3LFxXbaxIs8x1Z1HF-43" value="To Playlists" style="shape=offPageConnector;whiteSpace=wrap;html=1;direction=east;fillColor=#d5e8d4;strokeColor=#82b366;" vertex="1" parent="1">
          <mxGeometry x="279" y="630" width="80" height="80" as="geometry" />
        </mxCell>
        <mxCell id="ISL3LFxXbaxIs8x1Z1HF-45" value="To Search" style="shape=offPageConnector;whiteSpace=wrap;html=1;direction=east;fillColor=#ffe6cc;strokeColor=#d79b00;" vertex="1" parent="1">
          <mxGeometry x="489" y="630" width="80" height="80" as="geometry" />
        </mxCell>
        <mxCell id="ISL3LFxXbaxIs8x1Z1HF-47" value="To Friends" style="shape=offPageConnector;whiteSpace=wrap;html=1;direction=east;fillColor=#fff2cc;strokeColor=#d6b656;" vertex="1" parent="1">
          <mxGeometry x="699" y="630" width="80" height="80" as="geometry" />
        </mxCell>
        <mxCell id="ISL3LFxXbaxIs8x1Z1HF-53" value="Might make Home page a separate file, because it is going to be referenced by every page" style="shape=note;whiteSpace=wrap;html=1;backgroundOutline=1;fontColor=#000000;darkOpacity=0.05;fillColor=#FFF9B2;strokeColor=none;fillStyle=solid;direction=west;gradientDirection=north;gradientColor=#FFF2A1;shadow=1;size=20;pointerEvents=1;" vertex="1" parent="1">
          <mxGeometry x="359" y="730" width="140" height="160" as="geometry" />
        </mxCell>
        <mxCell id="ISL3LFxXbaxIs8x1Z1HF-55" value="Also, make a song player flowchart, because that will also be available on every page" style="shape=note;whiteSpace=wrap;html=1;backgroundOutline=1;fontColor=#000000;darkOpacity=0.05;fillColor=#FFF9B2;strokeColor=none;fillStyle=solid;direction=west;gradientDirection=north;gradientColor=#FFF2A1;shadow=1;size=20;pointerEvents=1;" vertex="1" parent="1">
          <mxGeometry x="541" y="780" width="140" height="160" as="geometry" />
        </mxCell>
      </root>
    </mxGraphModel>
  </diagram>
</mxfile>
